# xmcd
#
# Track frame offsets:
#	150
#	16695
#	36090
#	51884
#	66432
#	82040
#	97339
#	111615
#	126422
#	142330
#	157012
#	176431
#	196779
#	214202
#	229348
#	238918
#	255680
#	271588
#	285502
#	302925
#	319542
#	336690
#
# Disc length: 4757 seconds
#
# Revision: 1
# Processed by: cddbd v1.5.2PL0 Copyright (c) Steve Scherf et al.
# Submitted via: audiograbber 1.83.01
#
DISCID=5b129316
DTITLE=Adele - 19
DYEAR=2008
DGENRE=Soul
TTITLE0=Daydreamer
TTITLE1=Best_for_Last
TTITLE2=Chasing_Pavements
TTITLE3=Cold_Shoulder
TTITLE4=Crazy_for_You
TTITLE5=Melt_My_Heart_to_Stone
TTITLE6=First_Love
TTITLE7=Right_as_Rain
TTITLE8=Make_You_Feel_My_Love
TTITLE9=My_Same
TTITLE10=Tired
TTITLE11=Hometown_Glory
TTITLE12=Chasing_Pavements__Acoustic_Set_Live
TTITLE13=Melt_My_Heart_to_Stone__Acoustic_Set_Live
TTITLE14=That's_It,_I_Quit,_I'm_Movin'_On__Acoustic_Set_Live
TTITLE15=Crazy_for_You__Acoustic_Set_Live
TTITLE16=Right_as_Rain__Acoustic_Set_Live
TTITLE17=My_Same__Acoustic_Set_Live
TTITLE18=Make_You_Feel_My_Love__Acoustic_Set_Live
TTITLE19=Daydreamer__Acoustic_Set_Live
TTITLE20=Hometown_Glory__Acoustic_Set_Live
TTITLE21=Many_Shades_of_Black__Acoustic_Set_Live
EXTD=
EXTT0=
EXTT1=
EXTT2=
EXTT3=
EXTT4=
EXTT5=
EXTT6=
EXTT7=
EXTT8=
EXTT9=
EXTT10=
EXTT11=
EXTT12=
EXTT13=
EXTT14=
EXTT15=
EXTT16=
EXTT17=
EXTT18=
EXTT19=
EXTT20=
EXTT21=
PLAYORDER=
